M48
INCH,TZ
T1C0.0157
T2C0.0236
T3C0.0276
T4C0.0287
T5C0.0295
T6C0.0315
T7C0.0394
T8C0.0400
T9C0.0413
T10C0.0433
T11C0.0504
T12C0.0512
T13C0.0610
T14C0.0630
T15C0.1200
%
G90
G05
T1
X41929Y-72138
X42728Y-82616
X44151Y-72250
X49001Y-38827
X54144Y-67791
X55645Y-76309
X55943Y-87242
X59821Y-78484
X60046Y-56078
X60188Y-73257
X60437Y-75066
X60763Y-76000
X60997Y-73503
X61126Y-71358
X61195Y-71757
X61788Y-81425
X62021Y-73547
X62312Y-69024
X62542Y-75066
X62590Y-73100
X62719Y-67097
X63217Y-77734
X63450Y-75065
X65074Y-79726
X65214Y-79389
X65224Y-56561
X65530Y-84325
X67118Y-84578
X67190Y-76799
X67223Y-76484
X67243Y-79378
X68074Y-83569
X68300Y-84571
X68700Y-77420
X68741Y-78662
X68891Y-92273
X69175Y-76801
X69200Y-84854
X69374Y-79303
X69707Y-75810
X69730Y-73778
X69834Y-74119
X69870Y-81434
X70168Y-75316
X70368Y-40911
X70432Y-79588
X70457Y-76555
X70464Y-84513
X70560Y-81658
X70876Y-82959
X70967Y-78088
X71208Y-78341
X71253Y-49488
X71278Y-84068
X71296Y-81337
X71302Y-77753
X71368Y-80216
X71739Y-81082
X71779Y-79242
X71809Y-78447
X71862Y-80611
X71996Y-70852
X72010Y-79016
X72184Y-81426
X72329Y-78523
X72516Y-82445
X72558Y-76300
X72696Y-50217
X72716Y-79393
X73062Y-67465
X73084Y-77388
X73300Y-69751
X73342Y-74281
X73344Y-80808
X73701Y-79240
X73942Y-83558
X74325Y-80802
X74407Y-78532
X74508Y-62732
X74562Y-82632
X74700Y-79560
X74700Y-83569
X74959Y-80808
X74989Y-84505
X75351Y-83323
X75415Y-81267
X75630Y-56825
X75684Y-49335
X75722Y-81682
X75763Y-82174
X75785Y-55506
X75803Y-51354
X75986Y-83039
X76037Y-77676
X76237Y-49666
X76391Y-68272
X76645Y-55752
X76937Y-64109
X77204Y-61342
X77329Y-75908
X78747Y-81569
X78772Y-54176
X78840Y-61202
X79164Y-47855
X79319Y-85136
X79514Y-58051
X79667Y-59057
X79673Y-49154
X80408Y-91309
X80443Y-47160
X80594Y-64374
X81113Y-80713
X81183Y-62991
X81187Y-56961
X81200Y-56582
X81256Y-54684
X81524Y-81993
X81702Y-56714
X81775Y-76501
X82519Y-68799
X82596Y-58499
X82667Y-58879
X82885Y-56648
X82962Y-88616
X83133Y-55666
X83164Y-86782
X83296Y-54191
X83436Y-68645
X83566Y-78046
X83749Y-42817
X84024Y-85176
X84123Y-76295
X84182Y-70775
X84607Y-47985
X85099Y-85176
X85353Y-87040
X85492Y-63218
X85776Y-85575
X86463Y-60837
X86669Y-78092
X86778Y-62192
X87048Y-78654
X87091Y-64759
X87137Y-46142
X87372Y-54863
X88625Y-54191
X88671Y-49977
X88745Y-48202
X88804Y-41418
X88975Y-71221
X89035Y-70652
X89118Y-71598
X89138Y-65008
X89749Y-62816
X90874Y-60810
X91237Y-79561
X91482Y-71688
X91864Y-48360
X92140Y-66959
X92613Y-47534
X92656Y-69058
X92795Y-67205
X93000Y-62001
X93258Y-59923
X93431Y-59360
X93583Y-43228
X93681Y-69864
X93787Y-61368
X93957Y-56974
X94252Y-63132
X94493Y-38844
X94612Y-63095
X96562Y-68949
X96562Y-70792
X96589Y-63421
X97839Y-83941
X97884Y-81431
X97911Y-90228
X97962Y-72521
X98112Y-90742
X98471Y-75337
X98681Y-67818
X98949Y-47726
X99184Y-73092
X99491Y-60295
X99966Y-70961
X99985Y-87596
X100037Y-59514
X100208Y-67758
X100340Y-68420
X100547Y-55008
X100643Y-56025
X101370Y-68015
X102041Y-69652
X102285Y-62463
X102383Y-41031
X102384Y-73626
X102584Y-73056
X102632Y-79912
X102666Y-82479
X102847Y-62226
X102902Y-41716
X102974Y-86277
X103289Y-61074
X103920Y-63698
X103988Y-40785
X104860Y-59487
X105093Y-42238
X105437Y-74445
X105900Y-58627
X106074Y-80069
X106667Y-80069
X107130Y-63496
X107131Y-53463
X107245Y-69652
X107252Y-77689
X108819Y-73373
X108819Y-52744
X109530Y-78947
X109892Y-45680
X110643Y-92277
X111883Y-78947
X112456Y-73373
X112707Y-54524
X113186Y-78947
X115276Y-67088
T2
X51543Y-61737
X66671Y-58522
T3
X46024Y-57232
X46024Y-60232
X46024Y-61732
X46024Y-64732
T4
X43521Y-37327
X43521Y-38327
X43521Y-39327
X43521Y-40327
X46647Y-37327
X46647Y-38327
X46647Y-39327
X46647Y-40327
X47641Y-37327
X47641Y-38327
X47641Y-39327
X47641Y-40327
X50767Y-37327
X50767Y-38327
X50767Y-39327
X50767Y-40327
T5
X61767Y-65867
X61767Y-67776
X61890Y-54492
X62267Y-65867
X62267Y-67776
X62390Y-54492
X62767Y-65867
X62767Y-67776
X62890Y-54492
X64331Y-48648
X64331Y-52861
X71654Y-65114
X71654Y-67607
X72154Y-65114
X72154Y-67607
X72654Y-65114
X72654Y-67607
X75838Y-60619
X75838Y-63249
X76338Y-60619
X76338Y-63249
X76838Y-60619
X76838Y-63249
X79183Y-79448
X79379Y-73542
X79683Y-79448
X79862Y-83293
X79862Y-87505
X80183Y-79448
X80906Y-38427
X80906Y-42639
X81850Y-43890
X81850Y-48103
X82278Y-88030
X82278Y-88530
X82278Y-89030
X82332Y-51391
X82332Y-57811
X82586Y-53045
X82603Y-59411
X83086Y-53045
X83103Y-59411
X83586Y-53045
X83591Y-73542
X83603Y-59411
X86545Y-51391
X86545Y-57811
X88340Y-51391
X88374Y-57798
X88625Y-53037
X88628Y-59393
X89125Y-53037
X89128Y-59393
X89625Y-53037
X89628Y-59393
X91479Y-62816
X91479Y-65608
X91479Y-68400
X91479Y-71191
X91979Y-62816
X91979Y-65608
X91979Y-68400
X91979Y-71191
X92479Y-62816
X92479Y-65608
X92479Y-68400
X92479Y-71191
X92552Y-51391
X92587Y-57798
X94364Y-51390
X94406Y-57783
X94627Y-53058
X94651Y-59360
X95127Y-53058
X95151Y-59360
X95627Y-53058
X95651Y-59360
X96336Y-83242
X96336Y-85742
X96336Y-88242
X96336Y-90742
X96365Y-78097
X96367Y-73092
X96388Y-75605
X96400Y-80559
X96836Y-83242
X96836Y-85742
X96836Y-88242
X96836Y-90742
X96865Y-78097
X96867Y-73092
X96888Y-75605
X96900Y-80559
X97317Y-63096
X97317Y-65810
X97317Y-68524
X97317Y-71239
X97336Y-83242
X97336Y-85742
X97336Y-88242
X97336Y-90742
X97365Y-78097
X97367Y-73092
X97388Y-75605
X97400Y-80559
X97817Y-63096
X97817Y-65810
X97817Y-68524
X97817Y-71239
X98317Y-63096
X98317Y-65810
X98317Y-68524
X98317Y-71239
X98577Y-51390
X98619Y-57783
X100485Y-51391
X100539Y-59378
X100710Y-53058
X100855Y-57763
X101039Y-59378
X101210Y-53058
X101539Y-59378
X101710Y-53058
X104698Y-51391
X105067Y-57763
X106059Y-80761
X106429Y-54886
X106559Y-80761
X106884Y-51354
X107059Y-80761
X107131Y-52956
X107631Y-52956
X108131Y-52956
X109570Y-79686
X110070Y-79686
X110570Y-79686
X110641Y-54886
X111096Y-51354
X111928Y-79686
X112428Y-79686
X112928Y-79686
X113181Y-55987
X113681Y-55987
X114181Y-55987
X114286Y-79686
X114786Y-79686
X115286Y-79686
T6
X43173Y-44241
X43179Y-42077
X43182Y-46412
X44173Y-44241
X44179Y-42077
X44182Y-46412
X45173Y-44241
X45179Y-42077
X45182Y-46412
X45247Y-76500
X46524Y-54232
X46524Y-55232
X46632Y-72484
X46632Y-74484
X47632Y-72484
X47632Y-74484
X48200Y-76500
X48392Y-57780
X48392Y-60732
X48392Y-61748
X48392Y-64701
X48539Y-42410
X48539Y-44201
X48539Y-46015
X49539Y-42410
X49539Y-44201
X49539Y-46015
X50616Y-42410
X50616Y-44201
X50616Y-46015
X51616Y-42410
X51616Y-44201
X51616Y-46015
X51832Y-75984
X51832Y-76969
X51832Y-78484
X51832Y-79469
X51832Y-80984
X51832Y-81969
X51832Y-83500
X51832Y-84484
X53392Y-54248
X53392Y-55232
X53392Y-57248
X53392Y-59217
X53892Y-61748
X53892Y-64701
X54132Y-77484
X54132Y-78484
X54132Y-79484
X54132Y-80484
X54132Y-81484
X54132Y-82484
X54132Y-83484
X54132Y-84484
X57132Y-77484
X57132Y-78484
X57132Y-79484
X57132Y-80484
X57132Y-81484
X57132Y-82484
X57132Y-83484
X57132Y-84484
X60332Y-77984
X60332Y-78984
X60332Y-80484
X60332Y-81484
X60405Y-82984
X60405Y-83984
X62332Y-77984
X62332Y-78984
X62332Y-80484
X62332Y-81484
X62332Y-82984
X62332Y-83984
X62937Y-60759
X62937Y-63712
X64008Y-66156
X64008Y-67990
X64123Y-54636
X64332Y-77984
X64332Y-78984
X64332Y-80484
X64332Y-81484
X64332Y-82984
X64332Y-83984
X65008Y-66156
X65008Y-67990
X65123Y-54636
X65310Y-48930
X65465Y-50177
X66310Y-48930
X66465Y-50177
X66539Y-67720
X66577Y-65850
X66695Y-60358
X66695Y-61358
X66727Y-55577
X66727Y-56561
X68508Y-67720
X68546Y-65850
X68733Y-50196
X69084Y-55577
X69084Y-56561
X69561Y-67701
X69599Y-65831
X69733Y-50196
X70539Y-53402
X70561Y-67701
X70599Y-65831
X70632Y-90603
X70632Y-91603
X71797Y-73489
X72208Y-55007
X72208Y-56975
X72632Y-90603
X72632Y-91603
X72797Y-73489
X73492Y-53402
X73832Y-73484
X74616Y-47099
X74632Y-90603
X74632Y-91603
X74832Y-73484
X75616Y-47099
X75707Y-58150
X75717Y-54459
X75742Y-52616
X75746Y-56304
X75749Y-50785
X76632Y-90603
X76632Y-91603
X76707Y-58150
X76717Y-54459
X76742Y-52616
X76746Y-56304
X76749Y-50785
X78053Y-62016
X78053Y-63016
X78097Y-57080
X78147Y-60755
X78149Y-58940
X78632Y-90603
X78632Y-91603
X79000Y-80955
X79074Y-62066
X79074Y-63066
X79074Y-64396
X79074Y-65396
X79097Y-57080
X79147Y-60755
X79149Y-58940
X79162Y-76390
X79178Y-75155
X79416Y-66748
X79416Y-67748
X79416Y-68797
X79416Y-69797
X80000Y-80955
X80162Y-76390
X80178Y-75155
X80253Y-59569
X80253Y-60750
X80406Y-57682
X81253Y-59569
X81253Y-60750
X81256Y-66748
X81256Y-67748
X81256Y-68797
X81256Y-69797
X81406Y-57682
X81434Y-75413
X81434Y-77413
X81434Y-79413
X81434Y-81413
X81686Y-91727
X81777Y-54863
X81777Y-55863
X81874Y-90516
X82074Y-62066
X82074Y-63066
X82074Y-64396
X82074Y-65396
X82434Y-75413
X82434Y-77413
X82434Y-79413
X82434Y-81413
X82686Y-91727
X82874Y-90516
X83132Y-67817
X83236Y-64163
X83236Y-65977
X83236Y-69668
X83816Y-75469
X83816Y-77469
X83816Y-79469
X83816Y-81469
X83930Y-85742
X83999Y-87714
X83999Y-89714
X83999Y-91714
X84132Y-67817
X84142Y-62344
X84236Y-64163
X84236Y-65977
X84236Y-69668
X84674Y-58921
X84798Y-52532
X84801Y-53748
X84816Y-75469
X84816Y-77469
X84816Y-79469
X84816Y-81469
X84834Y-60147
X84930Y-85742
X84999Y-87714
X84999Y-89714
X84999Y-91714
X85142Y-62344
X85182Y-67793
X85287Y-64140
X85287Y-65954
X85287Y-69668
X85674Y-58921
X85798Y-52532
X85801Y-53748
X85834Y-60147
X86154Y-74462
X86154Y-75462
X86154Y-76462
X86154Y-77462
X86154Y-78462
X86154Y-79462
X86154Y-80462
X86154Y-81462
X86176Y-61358
X86182Y-67793
X86192Y-84316
X86192Y-85316
X86192Y-86316
X86192Y-87316
X86192Y-88316
X86192Y-89316
X86192Y-90316
X86192Y-91316
X86287Y-64140
X86287Y-65954
X86287Y-69668
X87176Y-61358
X87233Y-67770
X87337Y-64116
X87337Y-65930
X87337Y-69668
X88233Y-67770
X88313Y-61383
X88313Y-62383
X88337Y-64116
X88337Y-65930
X88337Y-69668
X89154Y-74462
X89154Y-75462
X89154Y-76462
X89154Y-77462
X89154Y-78462
X89154Y-79462
X89154Y-80462
X89154Y-81462
X89192Y-84316
X89192Y-85316
X89192Y-86316
X89192Y-87316
X89192Y-88316
X89192Y-89316
X89192Y-90316
X89192Y-91316
X89283Y-67793
X89388Y-64140
X89388Y-65954
X89388Y-69668
X90283Y-67793
X90388Y-64140
X90388Y-65954
X90388Y-69668
X90678Y-58891
X90842Y-53784
X90857Y-52551
X90861Y-60117
X91678Y-58891
X91842Y-53784
X91857Y-52551
X91861Y-60117
X93700Y-62425
X93700Y-63425
X93700Y-65049
X93700Y-66049
X93700Y-68058
X93700Y-69058
X93700Y-70688
X93700Y-71688
X95491Y-61163
X95491Y-63132
X95491Y-64023
X95491Y-65992
X95491Y-66884
X95491Y-68852
X95497Y-69750
X95497Y-71718
X96694Y-60084
X96846Y-52574
X96855Y-53806
X96864Y-58866
X97694Y-60084
X97846Y-52574
X97855Y-53806
X97864Y-58866
X98660Y-83045
X98660Y-84045
X98660Y-85545
X98660Y-86545
X98660Y-88045
X98660Y-89045
X98660Y-90545
X98660Y-91545
X98687Y-73657
X98687Y-74657
X98750Y-75877
X98750Y-76877
X98750Y-78118
X98750Y-79118
X98750Y-80484
X98750Y-81484
X99523Y-70679
X99523Y-71679
X99523Y-65028
X99523Y-66028
X99536Y-62463
X99536Y-63463
X99553Y-67716
X99553Y-68716
X100488Y-74746
X100488Y-76778
X100488Y-78641
X100488Y-80840
X100488Y-83966
X100488Y-86416
X100488Y-88772
X100488Y-91065
X101311Y-64099
X101311Y-66068
X101406Y-69750
X101406Y-71718
X102279Y-61258
X102279Y-63226
X102288Y-66922
X102288Y-68890
X102456Y-74746
X102456Y-76778
X102456Y-78641
X102456Y-80840
X102456Y-83966
X102456Y-86416
X102456Y-88772
X102456Y-91065
X102588Y-60158
X102761Y-58908
X102931Y-52572
X102931Y-53792
X103588Y-60158
X103761Y-58908
X103931Y-52572
X103931Y-53792
X105881Y-75497
X105949Y-82898
X105949Y-84757
X105977Y-88238
X105977Y-89238
X106001Y-86016
X106001Y-87016
X106214Y-78357
X106712Y-90526
X106712Y-91526
X106949Y-82898
X106949Y-84757
X107214Y-78357
X107849Y-75497
X107964Y-86246
X107964Y-89246
X108280Y-78706
X108280Y-79706
X108520Y-76831
X108768Y-90526
X108768Y-91526
X108964Y-86246
X108964Y-89246
X109347Y-53698
X109355Y-52475
X109964Y-86246
X109964Y-89246
X110347Y-53698
X110355Y-52475
X110489Y-76831
X110628Y-75515
X110754Y-90526
X110754Y-91526
X110964Y-86246
X110964Y-89246
X111640Y-58141
X111640Y-59141
X111640Y-60141
X111640Y-61141
X111640Y-62141
X111640Y-63141
X111640Y-64141
X111640Y-65141
X111640Y-66454
X111640Y-67454
X111640Y-68454
X111640Y-69454
X111640Y-70454
X111640Y-71454
X111640Y-72454
X111640Y-73454
X111964Y-86246
X111964Y-89246
X112148Y-77355
X112596Y-75515
X112704Y-90526
X112704Y-91526
X112964Y-86246
X112964Y-89246
X113148Y-77355
X113152Y-54195
X113322Y-52943
X113326Y-51733
X113524Y-75521
X113964Y-86246
X113964Y-89246
X114152Y-54195
X114322Y-52943
X114326Y-51733
X114433Y-77355
X114640Y-58141
X114640Y-59141
X114640Y-60141
X114640Y-61141
X114640Y-62141
X114640Y-63141
X114640Y-64141
X114640Y-65141
X114640Y-66454
X114640Y-67454
X114640Y-68454
X114640Y-69454
X114640Y-70454
X114640Y-71454
X114640Y-72454
X114640Y-73454
X114964Y-86246
X114964Y-89246
X115433Y-77355
X115492Y-75521
T7
X41270Y-43943
X41270Y-44943
X41274Y-41517
X41274Y-42517
X41281Y-46404
X41281Y-47404
X45524Y-52732
X48774Y-66482
X49774Y-66482
X50774Y-66482
X51524Y-52732
X51774Y-66482
X52774Y-66482
X53774Y-66482
X54774Y-66482
X55774Y-66482
X56774Y-66482
X58861Y-38622
X58861Y-39622
X65034Y-57601
X65034Y-63601
X104632Y-61484
X104632Y-62484
X104632Y-63484
X104632Y-64484
X104632Y-65484
X104632Y-66484
X104632Y-67484
X104632Y-68484
X104632Y-72404
X104632Y-73404
X104632Y-74404
X104632Y-75404
X104632Y-76404
X104632Y-77404
X104632Y-78404
X104632Y-79404
X104632Y-83484
X104632Y-84484
X104632Y-85484
X104632Y-86484
X104632Y-87484
X104632Y-88484
X104632Y-89484
X104632Y-90484
T8
X47232Y-69384
X48232Y-69384
X49232Y-69384
X50232Y-69384
X50832Y-88384
X51232Y-69384
X51832Y-88384
X52232Y-69384
X52832Y-88384
X53232Y-69384
X53832Y-88384
X54232Y-69384
X54832Y-88384
X55232Y-69384
X55832Y-88384
X56232Y-69384
X56832Y-88384
X57832Y-69384
X57832Y-88384
X58832Y-69384
X59832Y-69384
X59832Y-88384
X60832Y-69384
X60832Y-88384
X61832Y-69384
X61832Y-88384
X62832Y-69384
X62832Y-88384
X63832Y-69384
X63832Y-88384
X64832Y-69384
X64832Y-88384
X65832Y-88384
X66832Y-69384
X66832Y-88384
X67832Y-69384
X68832Y-69384
X68832Y-88384
X69832Y-69384
X69832Y-88384
X70832Y-69384
X70832Y-88384
X71832Y-69384
X71832Y-88384
X72832Y-69384
X72832Y-88384
X73832Y-69384
X73832Y-88384
X74832Y-88384
X75832Y-88384
X76832Y-69384
X76832Y-70384
X76832Y-71384
X76832Y-72384
X76832Y-73384
X76832Y-74384
X76832Y-75384
X76832Y-76384
X76832Y-77384
X76832Y-78384
X76832Y-79384
X76832Y-80384
X76832Y-81384
X76832Y-82384
X76832Y-83384
X76832Y-84384
X76832Y-85384
X76832Y-86384
X77832Y-69384
X77832Y-70384
X77832Y-71384
X77832Y-72384
X77832Y-73384
X77832Y-74384
X77832Y-75384
X77832Y-76384
X77832Y-77384
X77832Y-78384
X77832Y-79384
X77832Y-80384
X77832Y-81384
X77832Y-82384
X77832Y-83384
X77832Y-84384
X77832Y-85384
X77832Y-86384
T9
X47392Y-50248
X52943Y-50248
T10
X73927Y-67615
X73955Y-65648
X77927Y-67615
X77955Y-65648
X83700Y-39500
X83700Y-47000
X84448Y-44000
X85200Y-39500
X85200Y-47000
X85948Y-44000
X86700Y-39500
X86700Y-47000
X87448Y-44000
X88200Y-39500
X88200Y-47000
X88948Y-44000
X89700Y-39500
X89700Y-47000
X90448Y-44000
X90756Y-74733
X90756Y-76785
X90756Y-78795
X90756Y-80848
X90756Y-85254
X90756Y-87173
X90756Y-89059
X90756Y-90994
X91200Y-39500
X91200Y-47000
X91948Y-44000
X92700Y-39500
X92700Y-47000
X93448Y-44000
X94200Y-39500
X94200Y-47000
X94756Y-74733
X94756Y-76785
X94756Y-78795
X94756Y-80848
X94756Y-85254
X94756Y-87173
X94756Y-89059
X94756Y-90994
X94948Y-44000
X95700Y-39500
X95700Y-47000
X96448Y-44000
X97200Y-39500
X97200Y-47000
X97948Y-44000
X98700Y-39500
X98700Y-47000
X99448Y-44000
X100200Y-39500
X100200Y-47000
X100948Y-44000
X101700Y-39500
X101700Y-47000
X102448Y-44000
X103200Y-39500
X103200Y-47000
X103948Y-44000
X104700Y-39500
X104700Y-47000
X105448Y-44000
X106200Y-39500
X106200Y-47000
X106241Y-60592
X106241Y-62486
X106241Y-64387
X106241Y-66322
X106241Y-68320
X106241Y-70259
X106241Y-72119
X106241Y-74063
X106948Y-44000
X107700Y-39500
X107700Y-47000
X108448Y-44000
X108512Y-81180
X108512Y-85180
X109200Y-39500
X109200Y-47000
X109948Y-44000
X110241Y-60592
X110241Y-62486
X110241Y-64387
X110241Y-66322
X110241Y-68320
X110241Y-70259
X110241Y-72119
X110241Y-74063
X110512Y-81180
X110512Y-85180
X110700Y-39500
X110700Y-47000
X111448Y-44000
X112200Y-39500
X112200Y-47000
X112512Y-81180
X112512Y-85180
X112948Y-44000
X114512Y-81180
X114512Y-85180
T11
X62126Y-49553
X62126Y-50553
X62126Y-51553
X75857Y-43266
X75857Y-44266
X75857Y-45266
X79563Y-38405
X79563Y-39405
X79563Y-40405
X79563Y-44195
X79563Y-45195
X79563Y-46195
X80432Y-53137
X80432Y-54137
X80432Y-55137
X80473Y-48654
X80473Y-49654
X80473Y-50654
X81349Y-84071
X81349Y-85071
X81349Y-86071
X81392Y-72160
X82392Y-72160
X83392Y-72160
X83893Y-50151
X83893Y-56536
X84893Y-50151
X84893Y-56536
X85893Y-50151
X85893Y-56536
X90139Y-50151
X90139Y-56536
X91139Y-50151
X91139Y-56536
X92139Y-50151
X92139Y-56536
X95982Y-50151
X95982Y-56536
X96982Y-50151
X96982Y-56536
X97982Y-50151
X97982Y-56536
X101831Y-50151
X101916Y-56495
X102831Y-50151
X102916Y-56495
X103831Y-50151
X103916Y-56495
X107734Y-50151
X108014Y-56816
X108734Y-50151
X109014Y-56816
X109734Y-50151
X110014Y-56816
T12
X73994Y-39646
X75994Y-39646
T13
X62431Y-37630
X62431Y-46528
X66559Y-37628
X66559Y-46526
X70690Y-37630
X70690Y-46528
T14
X62900Y-57484
X62900Y-59484
T15
X45332Y-88384
X45832Y-69384
X65832Y-75384
X65832Y-86384
X75332Y-69384
X77832Y-88384
T0
M30
