G04 #@! TF.GenerationSoftware,KiCad,Pcbnew,(6.0.0)*
G04 #@! TF.CreationDate,2022-05-11T19:18:30-07:00*
G04 #@! TF.ProjectId,CampKeen,43616d70-4b65-4656-9e2e-6b696361645f,rev?*
G04 #@! TF.SameCoordinates,Original*
G04 #@! TF.FileFunction,Soldermask,Top*
G04 #@! TF.FilePolarity,Negative*
%FSLAX46Y46*%
G04 Gerber Fmt 4.6, Leading zero omitted, Abs format (unit mm)*
G04 Created by KiCad (PCBNEW (6.0.0)) date 2022-05-11 19:18:30*
%MOMM*%
%LPD*%
G01*
G04 APERTURE LIST*
%ADD10C,1.727200*%
%ADD11O,1.727200X1.727200*%
%ADD12O,1.727200X2.032000*%
%ADD13C,4.064000*%
%ADD14C,1.600000*%
%ADD15R,1.600000X1.600000*%
%ADD16R,1.925000X0.650000*%
%ADD17R,2.600000X2.600000*%
%ADD18C,2.600000*%
%ADD19C,1.650000*%
%ADD20R,1.700000X1.700000*%
%ADD21O,1.700000X1.700000*%
%ADD22C,2.000000*%
%ADD23O,2.000000X2.000000*%
%ADD24O,1.600000X1.600000*%
%ADD25C,2.360000*%
%ADD26R,2.300000X4.500000*%
%ADD27R,2.400000X1.600000*%
%ADD28O,2.400000X1.600000*%
%ADD29R,1.575000X1.575000*%
%ADD30C,1.575000*%
%ADD31R,1.528000X0.650000*%
%ADD32R,2.160000X0.910000*%
%ADD33R,10.410000X10.800001*%
%ADD34C,1.400000*%
%ADD35O,1.400000X1.400000*%
%ADD36R,3.200000X3.200000*%
%ADD37O,3.200000X3.200000*%
%ADD38R,1.920000X1.920000*%
%ADD39C,1.920000*%
%ADD40R,0.650000X1.525000*%
%ADD41R,2.200000X2.200000*%
%ADD42O,2.200000X2.200000*%
%ADD43R,1.130000X1.130000*%
%ADD44C,1.130000*%
%ADD45R,1.200000X1.200000*%
%ADD46C,1.200000*%
%ADD47R,1.500000X1.050000*%
%ADD48O,1.500000X1.050000*%
%ADD49R,1.050000X1.500000*%
%ADD50O,1.050000X1.500000*%
%ADD51C,1.440000*%
%ADD52R,1.150000X1.150000*%
%ADD53C,1.150000*%
G04 APERTURE END LIST*
D10*
X195153000Y-219416000D03*
D11*
X197693000Y-219416000D03*
X195153000Y-216876000D03*
X197693000Y-216876000D03*
X195153000Y-214336000D03*
X197693000Y-214336000D03*
X195153000Y-211796000D03*
X197693000Y-211796000D03*
X195153000Y-209256000D03*
X197693000Y-209256000D03*
X195153000Y-206716000D03*
X197693000Y-206716000D03*
X195153000Y-204176000D03*
X197693000Y-204176000D03*
X195153000Y-201636000D03*
X197693000Y-201636000D03*
X195153000Y-199096000D03*
X197693000Y-199096000D03*
X195153000Y-196556000D03*
X197693000Y-196556000D03*
X195153000Y-194016000D03*
X197693000Y-194016000D03*
X195153000Y-191476000D03*
X197693000Y-191476000D03*
X195153000Y-188936000D03*
X197693000Y-188936000D03*
X195153000Y-186396000D03*
X197693000Y-186396000D03*
X195153000Y-183856000D03*
X197693000Y-183856000D03*
X195153000Y-181316000D03*
X197693000Y-181316000D03*
X195153000Y-178776000D03*
X197693000Y-178776000D03*
X195153000Y-176236000D03*
X197693000Y-176236000D03*
D12*
X129113000Y-224496000D03*
X131653000Y-224496000D03*
X134193000Y-224496000D03*
X136733000Y-224496000D03*
X139273000Y-224496000D03*
X141813000Y-224496000D03*
X144353000Y-224496000D03*
X146893000Y-224496000D03*
X151973000Y-224496000D03*
X154513000Y-224496000D03*
X157053000Y-224496000D03*
X159593000Y-224496000D03*
X162133000Y-224496000D03*
X164673000Y-224496000D03*
X167213000Y-224496000D03*
X169753000Y-224496000D03*
X174833000Y-224496000D03*
X177373000Y-224496000D03*
X179913000Y-224496000D03*
X182453000Y-224496000D03*
X184993000Y-224496000D03*
X187533000Y-224496000D03*
X190073000Y-224496000D03*
X192613000Y-224496000D03*
X119969000Y-176236000D03*
X122509000Y-176236000D03*
X125049000Y-176236000D03*
X127589000Y-176236000D03*
X130129000Y-176236000D03*
X132669000Y-176236000D03*
X135209000Y-176236000D03*
X137749000Y-176236000D03*
X140289000Y-176236000D03*
X142829000Y-176236000D03*
X146893000Y-176236000D03*
X149433000Y-176236000D03*
X151973000Y-176236000D03*
X154513000Y-176236000D03*
X157053000Y-176236000D03*
X159593000Y-176236000D03*
X162133000Y-176236000D03*
X164673000Y-176236000D03*
X169753000Y-176236000D03*
X172293000Y-176236000D03*
X174833000Y-176236000D03*
X177373000Y-176236000D03*
X179913000Y-176236000D03*
X182453000Y-176236000D03*
X184993000Y-176236000D03*
X187533000Y-176236000D03*
D13*
X115143000Y-224496000D03*
X167213000Y-219416000D03*
X197693000Y-224496000D03*
X116413000Y-176236000D03*
X167213000Y-191476000D03*
X191343000Y-176236000D03*
D14*
X179170000Y-135640400D03*
X186670000Y-135640400D03*
X159861000Y-154329000D03*
X159861000Y-161829000D03*
D15*
X169486900Y-141164800D03*
D14*
X169486900Y-143664800D03*
D15*
X183409200Y-139716700D03*
D14*
X183409200Y-144716700D03*
X122428000Y-194310000D03*
X114928000Y-194310000D03*
D15*
X131653000Y-199350000D03*
D14*
X131653000Y-201850000D03*
D15*
X131653000Y-214590000D03*
D14*
X131653000Y-212090000D03*
D15*
X131653000Y-205700000D03*
D14*
X131653000Y-208200000D03*
D15*
X131653000Y-193000000D03*
D14*
X131653000Y-195500000D03*
D16*
X105016000Y-180975000D03*
X105016000Y-182245000D03*
X105016000Y-183515000D03*
X105016000Y-184785000D03*
X105016000Y-186055000D03*
X105016000Y-187325000D03*
X105016000Y-188595000D03*
X105016000Y-189865000D03*
X114440000Y-189865000D03*
X114440000Y-188595000D03*
X114440000Y-187325000D03*
X114440000Y-186055000D03*
X114440000Y-184785000D03*
X114440000Y-183515000D03*
X114440000Y-182245000D03*
X114440000Y-180975000D03*
D17*
X193026000Y-100701500D03*
D18*
X187946000Y-100701500D03*
D19*
X224028000Y-119380000D03*
X225928000Y-111760000D03*
X224028000Y-100330000D03*
X220218000Y-119380000D03*
X222118000Y-111760000D03*
X220218000Y-100330000D03*
X216408000Y-119380000D03*
X218308000Y-111760000D03*
X216408000Y-100330000D03*
X212598000Y-119380000D03*
X214498000Y-111760000D03*
X212598000Y-100330000D03*
X269748000Y-119380000D03*
X271648000Y-111760000D03*
X269748000Y-100330000D03*
X265938000Y-119380000D03*
X267838000Y-111760000D03*
X265938000Y-100330000D03*
X262128000Y-119380000D03*
X264028000Y-111760000D03*
X262128000Y-100330000D03*
X258318000Y-119380000D03*
X260218000Y-111760000D03*
X258318000Y-100330000D03*
X239268000Y-119380000D03*
X241168000Y-111760000D03*
X239268000Y-100330000D03*
X235458000Y-119380000D03*
X237358000Y-111760000D03*
X235458000Y-100330000D03*
X231648000Y-119380000D03*
X233548000Y-111760000D03*
X231648000Y-100330000D03*
X227838000Y-119380000D03*
X229738000Y-111760000D03*
X227838000Y-100330000D03*
D20*
X265765000Y-156170000D03*
D21*
X265765000Y-158710000D03*
X265765000Y-161250000D03*
X265765000Y-163790000D03*
X265765000Y-166330000D03*
X265765000Y-168870000D03*
X265765000Y-171410000D03*
X265765000Y-173950000D03*
D20*
X265765000Y-212050000D03*
D21*
X265765000Y-214590000D03*
X265765000Y-217130000D03*
X265765000Y-219670000D03*
X265765000Y-222210000D03*
X265765000Y-224750000D03*
X265765000Y-227290000D03*
X265765000Y-229830000D03*
D20*
X265765000Y-183905000D03*
D21*
X265765000Y-186445000D03*
X265765000Y-188985000D03*
X265765000Y-191525000D03*
X265765000Y-194065000D03*
X265765000Y-196605000D03*
X265765000Y-199145000D03*
X265765000Y-201685000D03*
D22*
X165185800Y-146307300D03*
D23*
X165185800Y-161547300D03*
D14*
X169404200Y-153310400D03*
D24*
X169404200Y-155850400D03*
D14*
X120985000Y-184110000D03*
D24*
X118445000Y-184110000D03*
D14*
X120985000Y-189190000D03*
D24*
X118445000Y-189190000D03*
D25*
X179552400Y-95581200D03*
X179552400Y-118181200D03*
D26*
X109555000Y-212630000D03*
X109555000Y-196230000D03*
D27*
X137495000Y-196810000D03*
D28*
X137495000Y-199350000D03*
X137495000Y-201890000D03*
X137495000Y-204430000D03*
X137495000Y-206970000D03*
X137495000Y-209510000D03*
X137495000Y-212050000D03*
X137495000Y-214590000D03*
X145115000Y-214590000D03*
X145115000Y-212050000D03*
X145115000Y-209510000D03*
X145115000Y-206970000D03*
X145115000Y-204430000D03*
X145115000Y-201890000D03*
X145115000Y-199350000D03*
X145115000Y-196810000D03*
D19*
X254508000Y-119380000D03*
X256408000Y-111760000D03*
X254508000Y-100330000D03*
X250698000Y-119380000D03*
X252598000Y-111760000D03*
X250698000Y-100330000D03*
X246888000Y-119380000D03*
X248788000Y-111760000D03*
X246888000Y-100330000D03*
X243078000Y-119380000D03*
X244978000Y-111760000D03*
X243078000Y-100330000D03*
D14*
X122915000Y-156840200D03*
X122915000Y-164340200D03*
X122915000Y-154260200D03*
X122915000Y-146760200D03*
X136885000Y-156840200D03*
X136885000Y-164340200D03*
D15*
X135615000Y-137790200D03*
D14*
X135615000Y-140290200D03*
D15*
X135615000Y-145410200D03*
D14*
X135615000Y-150410200D03*
D15*
X175473500Y-141164800D03*
D14*
X175473500Y-143664800D03*
D29*
X120375000Y-127630200D03*
D30*
X134475000Y-127630200D03*
D31*
X123079000Y-138385200D03*
X123079000Y-139655200D03*
X123079000Y-140925200D03*
X123079000Y-142195200D03*
X128501000Y-142195200D03*
X128501000Y-140925200D03*
X128501000Y-139655200D03*
X128501000Y-138385200D03*
D32*
X173410800Y-150104100D03*
X173410800Y-151374100D03*
X173410800Y-152644100D03*
X173410800Y-153914100D03*
X173410800Y-155184100D03*
X173410800Y-156454100D03*
X173410800Y-157724100D03*
D33*
X181730800Y-153914100D03*
D22*
X130870000Y-133940200D03*
D23*
X115630000Y-133940200D03*
D14*
X118170000Y-137750200D03*
D24*
X118170000Y-140290200D03*
D34*
X116900000Y-156800200D03*
D35*
X116900000Y-164420200D03*
D34*
X116900000Y-145370200D03*
D35*
X116900000Y-152990200D03*
D36*
X159766200Y-146010200D03*
D37*
X159766200Y-151090200D03*
D38*
X192676000Y-109894400D03*
D39*
X192676000Y-112434400D03*
X192676000Y-114974400D03*
D14*
X192065700Y-119630700D03*
D24*
X189525700Y-119630700D03*
D40*
X152273000Y-189402000D03*
X153543000Y-189402000D03*
X154813000Y-189402000D03*
X156083000Y-189402000D03*
X157353000Y-189402000D03*
X158623000Y-189402000D03*
X159893000Y-189402000D03*
X161163000Y-189402000D03*
X161163000Y-183978000D03*
X159893000Y-183978000D03*
X158623000Y-183978000D03*
X157353000Y-183978000D03*
X156083000Y-183978000D03*
X154813000Y-183978000D03*
X153543000Y-183978000D03*
X152273000Y-183978000D03*
D20*
X144205000Y-168865200D03*
D21*
X141665000Y-168865200D03*
X139125000Y-168865200D03*
X136585000Y-168865200D03*
X134045000Y-168865200D03*
X131505000Y-168865200D03*
X128965000Y-168865200D03*
X126425000Y-168865200D03*
X123885000Y-168865200D03*
D19*
X284988000Y-119380000D03*
X286888000Y-111760000D03*
X284988000Y-100330000D03*
X281178000Y-119380000D03*
X283078000Y-111760000D03*
X281178000Y-100330000D03*
X277368000Y-119380000D03*
X279268000Y-111760000D03*
X277368000Y-100330000D03*
X273558000Y-119380000D03*
X275458000Y-111760000D03*
X273558000Y-100330000D03*
D25*
X169058859Y-95576059D03*
X169058859Y-118176059D03*
D14*
X255238900Y-231305000D03*
X260238900Y-231305000D03*
X255238900Y-225480400D03*
X260238900Y-225480400D03*
X255238900Y-219496300D03*
X260238900Y-219496300D03*
X255238900Y-213272800D03*
X260238900Y-213272800D03*
X255238900Y-205334400D03*
X260238900Y-205334400D03*
X255238900Y-199749200D03*
X260238900Y-199749200D03*
X255238900Y-189855400D03*
X260238900Y-189855400D03*
X255238900Y-195015000D03*
X260238900Y-195015000D03*
X268936700Y-191762600D03*
X273936700Y-191762600D03*
X288350700Y-191823900D03*
X293350700Y-191823900D03*
X275641600Y-195151700D03*
X280641600Y-195151700D03*
X280994500Y-191807700D03*
X285994500Y-191807700D03*
X259789000Y-155594600D03*
X259789000Y-160594600D03*
X257329700Y-162812500D03*
X257329700Y-167812500D03*
X259811300Y-169981400D03*
X259811300Y-174981400D03*
X257571100Y-177164100D03*
X257571100Y-182164100D03*
X242546100Y-155355000D03*
X242546100Y-160355000D03*
X242546100Y-162619600D03*
X242546100Y-167619600D03*
X169105700Y-167258900D03*
X174105700Y-167258900D03*
X169009800Y-172008200D03*
X174009800Y-172008200D03*
X242546100Y-169884100D03*
X242546100Y-174884100D03*
X242561800Y-177164100D03*
X242561800Y-182164100D03*
D41*
X240680900Y-231125800D03*
D42*
X230520900Y-231125800D03*
D41*
X269853100Y-173532700D03*
D42*
X280013100Y-173532700D03*
D41*
X240680900Y-226209700D03*
D42*
X230520900Y-226209700D03*
D41*
X240680900Y-216544100D03*
D42*
X230520900Y-216544100D03*
D41*
X240680900Y-221420000D03*
D42*
X230520900Y-221420000D03*
D41*
X240680900Y-205352800D03*
D42*
X230520900Y-205352800D03*
D41*
X240680900Y-195033400D03*
D42*
X230520900Y-195033400D03*
D41*
X240680900Y-200139900D03*
D42*
X230520900Y-200139900D03*
D41*
X240680900Y-189820600D03*
D42*
X230520900Y-189820600D03*
D41*
X275620200Y-206197400D03*
D42*
X275620200Y-216357400D03*
D41*
X280700200Y-206197400D03*
D42*
X280700200Y-216357400D03*
D41*
X285780200Y-206197400D03*
D42*
X285780200Y-216357400D03*
D41*
X290860200Y-206197400D03*
D42*
X290860200Y-216357400D03*
D41*
X269853100Y-178457200D03*
D42*
X280013100Y-178457200D03*
D41*
X269853100Y-183182700D03*
D42*
X280013100Y-183182700D03*
D41*
X269853100Y-188119400D03*
D42*
X280013100Y-188119400D03*
D41*
X187844900Y-166746900D03*
D42*
X198004900Y-166746900D03*
D41*
X187773600Y-171742900D03*
D42*
X197933600Y-171742900D03*
D41*
X269853100Y-153902800D03*
D42*
X280013100Y-153902800D03*
D41*
X269853100Y-158714300D03*
D42*
X280013100Y-158714300D03*
D41*
X269853100Y-163542200D03*
D42*
X280013100Y-163542200D03*
D41*
X269853100Y-168457600D03*
D42*
X280013100Y-168457600D03*
D43*
X121009000Y-94810400D03*
D44*
X121009000Y-97350400D03*
X121009000Y-99890400D03*
X121009000Y-102430400D03*
X128949000Y-102430400D03*
X128949000Y-99890400D03*
X128949000Y-97350400D03*
X128949000Y-94810400D03*
D43*
X110543800Y-94810400D03*
D44*
X110543800Y-97350400D03*
X110543800Y-99890400D03*
X110543800Y-102430400D03*
X118483800Y-102430400D03*
X118483800Y-99890400D03*
X118483800Y-97350400D03*
X118483800Y-94810400D03*
D40*
X182118000Y-203372000D03*
X183388000Y-203372000D03*
X184658000Y-203372000D03*
X185928000Y-203372000D03*
X187198000Y-203372000D03*
X188468000Y-203372000D03*
X189738000Y-203372000D03*
X189738000Y-197948000D03*
X188468000Y-197948000D03*
X187198000Y-197948000D03*
X185928000Y-197948000D03*
X184658000Y-197948000D03*
X183388000Y-197948000D03*
X182118000Y-197948000D03*
X170688000Y-203372000D03*
X171958000Y-203372000D03*
X173228000Y-203372000D03*
X174498000Y-203372000D03*
X175768000Y-203372000D03*
X177038000Y-203372000D03*
X178308000Y-203372000D03*
X178308000Y-197948000D03*
X177038000Y-197948000D03*
X175768000Y-197948000D03*
X174498000Y-197948000D03*
X173228000Y-197948000D03*
X171958000Y-197948000D03*
X170688000Y-197948000D03*
X170688000Y-213532000D03*
X171958000Y-213532000D03*
X173228000Y-213532000D03*
X174498000Y-213532000D03*
X175768000Y-213532000D03*
X177038000Y-213532000D03*
X178308000Y-213532000D03*
X178308000Y-208108000D03*
X177038000Y-208108000D03*
X175768000Y-208108000D03*
X174498000Y-208108000D03*
X173228000Y-208108000D03*
X171958000Y-208108000D03*
X170688000Y-208108000D03*
X182118000Y-213532000D03*
X183388000Y-213532000D03*
X184658000Y-213532000D03*
X185928000Y-213532000D03*
X187198000Y-213532000D03*
X188468000Y-213532000D03*
X189738000Y-213532000D03*
X189738000Y-208108000D03*
X188468000Y-208108000D03*
X187198000Y-208108000D03*
X185928000Y-208108000D03*
X184658000Y-208108000D03*
X183388000Y-208108000D03*
X182118000Y-208108000D03*
D45*
X200847400Y-157646900D03*
D46*
X200847400Y-160186900D03*
X208467400Y-160186900D03*
X208467400Y-157646900D03*
D45*
X200847400Y-163566100D03*
D46*
X200847400Y-166106100D03*
X208467400Y-166106100D03*
X208467400Y-163566100D03*
D20*
X104852500Y-117867000D03*
D21*
X104852500Y-120407000D03*
D20*
X104824700Y-111614900D03*
D21*
X104824700Y-114154900D03*
D20*
X104834900Y-105453700D03*
D21*
X104834900Y-107993700D03*
D25*
X158575900Y-118181200D03*
X158575900Y-95581200D03*
D47*
X208984900Y-226137200D03*
D48*
X208984900Y-224867200D03*
X208984900Y-223597200D03*
D38*
X206626700Y-213539500D03*
D39*
X206626700Y-216079500D03*
X206626700Y-218619500D03*
D49*
X247233200Y-230485000D03*
D50*
X245963200Y-230485000D03*
X244693200Y-230485000D03*
D49*
X247233200Y-224135000D03*
D50*
X245963200Y-224135000D03*
X244693200Y-224135000D03*
D49*
X247233200Y-217785000D03*
D50*
X245963200Y-217785000D03*
X244693200Y-217785000D03*
D49*
X247233200Y-211435000D03*
D50*
X245963200Y-211435000D03*
X244693200Y-211435000D03*
D49*
X157200500Y-138410300D03*
D50*
X158470500Y-138410300D03*
X159740500Y-138410300D03*
D38*
X157799800Y-125864700D03*
D39*
X157799800Y-128404700D03*
X157799800Y-130944700D03*
D49*
X201124800Y-201797100D03*
D50*
X202394800Y-201797100D03*
X203664800Y-201797100D03*
D38*
X206736600Y-183286100D03*
D39*
X209276600Y-183286100D03*
X211816600Y-183286100D03*
D49*
X247395700Y-204619600D03*
D50*
X246125700Y-204619600D03*
X244855700Y-204619600D03*
D49*
X247306600Y-198366100D03*
D50*
X246036600Y-198366100D03*
X244766600Y-198366100D03*
D49*
X247313200Y-185653200D03*
D50*
X246043200Y-185653200D03*
X244773200Y-185653200D03*
D49*
X247366400Y-192036300D03*
D50*
X246096400Y-192036300D03*
X244826400Y-192036300D03*
D49*
X269388700Y-205133500D03*
D50*
X270658700Y-205133500D03*
X271928700Y-205133500D03*
D49*
X290287600Y-202401200D03*
D50*
X291557600Y-202401200D03*
X292827600Y-202401200D03*
D49*
X278306800Y-202401200D03*
D50*
X279576800Y-202401200D03*
X280846800Y-202401200D03*
D49*
X284297200Y-202401200D03*
D50*
X285567200Y-202401200D03*
X286837200Y-202401200D03*
D49*
X247184700Y-160263300D03*
D50*
X248454700Y-160263300D03*
X249724700Y-160263300D03*
D49*
X247184700Y-167157700D03*
D50*
X248454700Y-167157700D03*
X249724700Y-167157700D03*
D49*
X247184700Y-174052000D03*
D50*
X248454700Y-174052000D03*
X249724700Y-174052000D03*
D49*
X247184700Y-180946400D03*
D50*
X248454700Y-180946400D03*
X249724700Y-180946400D03*
D49*
X232355400Y-159553300D03*
D50*
X233625400Y-159553300D03*
X234895400Y-159553300D03*
D49*
X232355400Y-166644300D03*
D50*
X233625400Y-166644300D03*
X234895400Y-166644300D03*
D49*
X182001000Y-165390600D03*
D50*
X183271000Y-165390600D03*
X184541000Y-165390600D03*
D49*
X182001000Y-171723000D03*
D50*
X183271000Y-171723000D03*
X184541000Y-171723000D03*
D49*
X232355400Y-173735300D03*
D50*
X233625400Y-173735300D03*
X234895400Y-173735300D03*
D49*
X232355400Y-180826300D03*
D50*
X233625400Y-180826300D03*
X234895400Y-180826300D03*
D49*
X209768900Y-134734400D03*
D50*
X211038900Y-134734400D03*
X212308900Y-134734400D03*
D49*
X225114700Y-150857700D03*
D50*
X226384700Y-150857700D03*
X227654700Y-150857700D03*
D38*
X213088400Y-127384000D03*
D39*
X215628400Y-127384000D03*
X218168400Y-127384000D03*
D38*
X228953000Y-143602200D03*
D39*
X231493000Y-143602200D03*
X234033000Y-143602200D03*
D49*
X209810700Y-150902700D03*
D50*
X211080700Y-150902700D03*
X212350700Y-150902700D03*
D38*
X213088400Y-143602200D03*
D39*
X215628400Y-143602200D03*
X218168400Y-143602200D03*
D49*
X225107000Y-134714600D03*
D50*
X226377000Y-134714600D03*
X227647000Y-134714600D03*
D38*
X228953000Y-127384000D03*
D39*
X231493000Y-127384000D03*
X234033000Y-127384000D03*
D49*
X240351700Y-134768200D03*
D50*
X241621700Y-134768200D03*
X242891700Y-134768200D03*
D38*
X243794000Y-127384000D03*
D39*
X246334000Y-127384000D03*
X248874000Y-127384000D03*
D49*
X287479500Y-142206100D03*
D50*
X288749500Y-142206100D03*
X290019500Y-142206100D03*
D38*
X274354900Y-144311500D03*
D39*
X276894900Y-144311500D03*
X279434900Y-144311500D03*
D49*
X272112700Y-134507000D03*
D50*
X273382700Y-134507000D03*
X274652700Y-134507000D03*
D49*
X255369800Y-150820800D03*
D50*
X256639800Y-150820800D03*
X257909800Y-150820800D03*
D38*
X273644600Y-127384000D03*
D39*
X276184600Y-127384000D03*
X278724600Y-127384000D03*
D38*
X258866800Y-143498500D03*
D39*
X261406800Y-143498500D03*
X263946800Y-143498500D03*
D49*
X156888000Y-167302200D03*
D50*
X158158000Y-167302200D03*
X159428000Y-167302200D03*
D38*
X202090500Y-117335600D03*
D39*
X202090500Y-114795600D03*
X202090500Y-112255600D03*
D49*
X255804100Y-134768200D03*
D50*
X257074100Y-134768200D03*
X258344100Y-134768200D03*
D38*
X258650200Y-127384000D03*
D39*
X261190200Y-127384000D03*
X263730200Y-127384000D03*
D49*
X192629500Y-160651900D03*
D50*
X193899500Y-160651900D03*
X195169500Y-160651900D03*
D38*
X202090500Y-102629000D03*
D39*
X202090500Y-100089000D03*
X202090500Y-97549000D03*
D49*
X240412800Y-150774300D03*
D50*
X241682800Y-150774300D03*
X242952800Y-150774300D03*
D38*
X243794000Y-143602200D03*
D39*
X246334000Y-143602200D03*
X248874000Y-143602200D03*
D49*
X156888000Y-172151300D03*
D50*
X158158000Y-172151300D03*
X159428000Y-172151300D03*
D38*
X204402600Y-128661100D03*
D39*
X204402600Y-126121100D03*
X204402600Y-123581100D03*
D49*
X192629500Y-153972200D03*
D50*
X193899500Y-153972200D03*
X195169500Y-153972200D03*
D38*
X204297600Y-140048200D03*
D39*
X204297600Y-137508200D03*
X204297600Y-134968200D03*
D45*
X226547900Y-231942300D03*
D46*
X226547900Y-229402300D03*
X226547900Y-226862300D03*
X226547900Y-224322300D03*
X226547900Y-221782300D03*
X226547900Y-219242300D03*
X226547900Y-216702300D03*
X226547900Y-214162300D03*
X218927900Y-214162300D03*
X218927900Y-216702300D03*
X218927900Y-219242300D03*
X218927900Y-221782300D03*
X218927900Y-224322300D03*
X218927900Y-226862300D03*
X218927900Y-229402300D03*
X218927900Y-231942300D03*
D45*
X226451200Y-206913800D03*
D46*
X226451200Y-204373800D03*
X226451200Y-201833800D03*
X226451200Y-199293800D03*
X226451200Y-196753800D03*
X226451200Y-194213800D03*
X226451200Y-191673800D03*
X226451200Y-189133800D03*
X218831200Y-189133800D03*
X218831200Y-191673800D03*
X218831200Y-194213800D03*
X218831200Y-196753800D03*
X218831200Y-199293800D03*
X218831200Y-201833800D03*
X218831200Y-204373800D03*
X218831200Y-206913800D03*
D45*
X274227500Y-226685600D03*
D46*
X276767500Y-226685600D03*
X279307500Y-226685600D03*
X281847500Y-226685600D03*
X284387500Y-226685600D03*
X286927500Y-226685600D03*
X289467500Y-226685600D03*
X292007500Y-226685600D03*
X292007500Y-219065600D03*
X289467500Y-219065600D03*
X286927500Y-219065600D03*
X284387500Y-219065600D03*
X281847500Y-219065600D03*
X279307500Y-219065600D03*
X276767500Y-219065600D03*
X274227500Y-219065600D03*
D45*
X283566300Y-168792100D03*
D46*
X283566300Y-171332100D03*
X283566300Y-173872100D03*
X283566300Y-176412100D03*
X283566300Y-178952100D03*
X283566300Y-181492100D03*
X283566300Y-184032100D03*
X283566300Y-186572100D03*
X291186300Y-186572100D03*
X291186300Y-184032100D03*
X291186300Y-181492100D03*
X291186300Y-178952100D03*
X291186300Y-176412100D03*
X291186300Y-173872100D03*
X291186300Y-171332100D03*
X291186300Y-168792100D03*
D45*
X283566300Y-147678000D03*
D46*
X283566300Y-150218000D03*
X283566300Y-152758000D03*
X283566300Y-155298000D03*
X283566300Y-157838000D03*
X283566300Y-160378000D03*
X283566300Y-162918000D03*
X283566300Y-165458000D03*
X291186300Y-165458000D03*
X291186300Y-162918000D03*
X291186300Y-160378000D03*
X291186300Y-157838000D03*
X291186300Y-155298000D03*
X291186300Y-152758000D03*
X291186300Y-150218000D03*
X291186300Y-147678000D03*
D14*
X123288700Y-107720500D03*
D24*
X125828700Y-107720500D03*
D14*
X123288700Y-112270100D03*
D24*
X125828700Y-112270100D03*
D14*
X128563900Y-116879300D03*
D24*
X131103900Y-116879300D03*
D14*
X128563900Y-107720500D03*
D24*
X131103900Y-107720500D03*
D14*
X128563900Y-112270100D03*
D24*
X131103900Y-112270100D03*
D14*
X123288700Y-116879300D03*
D24*
X125828700Y-116879300D03*
D14*
X271048000Y-232475500D03*
D24*
X271048000Y-229935500D03*
D14*
X215722800Y-217785100D03*
D24*
X213182800Y-217785100D03*
D14*
X210021300Y-232987200D03*
D24*
X207481300Y-232987200D03*
D14*
X207959300Y-229910900D03*
D24*
X210499300Y-229910900D03*
D14*
X250595300Y-229984200D03*
D24*
X250595300Y-232524200D03*
D14*
X250595300Y-223634200D03*
D24*
X250595300Y-226174200D03*
D14*
X213357200Y-232952800D03*
D24*
X215897200Y-232952800D03*
D14*
X213357200Y-227872800D03*
D24*
X215897200Y-227872800D03*
D14*
X250595300Y-217284200D03*
D24*
X250595300Y-219824200D03*
D14*
X250595300Y-210934200D03*
D24*
X250595300Y-213474200D03*
D14*
X194645900Y-230131700D03*
D24*
X194645900Y-232671700D03*
D14*
X199725900Y-230131700D03*
D24*
X199725900Y-232671700D03*
D14*
X153243000Y-200620000D03*
D24*
X153243000Y-198080000D03*
D14*
X158323000Y-200620000D03*
D24*
X158323000Y-198080000D03*
D14*
X163403000Y-200620000D03*
D24*
X163403000Y-198080000D03*
D14*
X153243000Y-206970000D03*
D24*
X153243000Y-204430000D03*
D14*
X158323000Y-206970000D03*
D24*
X158323000Y-204430000D03*
D14*
X163403000Y-206970000D03*
D24*
X163403000Y-204430000D03*
D14*
X153428000Y-213320000D03*
D24*
X153428000Y-210780000D03*
D14*
X158323000Y-213320000D03*
D24*
X158323000Y-210780000D03*
D14*
X163403000Y-213320000D03*
D24*
X163403000Y-210780000D03*
D14*
X162873400Y-138774700D03*
D24*
X165413400Y-138774700D03*
D14*
X166282200Y-127450500D03*
D24*
X168822200Y-127450500D03*
D14*
X168428300Y-124281900D03*
D24*
X165888300Y-124281900D03*
D14*
X184903700Y-186662400D03*
D24*
X182363700Y-186662400D03*
D14*
X190073000Y-186650000D03*
D24*
X187533000Y-186650000D03*
D14*
X203199300Y-205626900D03*
D24*
X200659300Y-205626900D03*
D14*
X201111600Y-190892600D03*
D24*
X203651600Y-190892600D03*
D14*
X203611700Y-194031000D03*
D24*
X201071700Y-194031000D03*
D14*
X250823900Y-204430100D03*
D24*
X250823900Y-206970100D03*
D14*
X250823900Y-198419300D03*
D24*
X250823900Y-200959300D03*
D14*
X206843000Y-206790000D03*
D24*
X209383000Y-206790000D03*
D14*
X206843000Y-191550000D03*
D24*
X209383000Y-191550000D03*
D14*
X250664400Y-187089400D03*
D24*
X250664400Y-189629400D03*
D14*
X250823900Y-192727800D03*
D24*
X250823900Y-195267800D03*
D14*
X206843000Y-201710000D03*
D24*
X209383000Y-201710000D03*
D14*
X206843000Y-196630000D03*
D24*
X209383000Y-196630000D03*
D14*
X269782700Y-199026400D03*
D24*
X272322700Y-199026400D03*
D14*
X290659700Y-196482800D03*
D24*
X293199700Y-196482800D03*
D14*
X269111100Y-210560100D03*
D24*
X271651100Y-210560100D03*
D14*
X269182100Y-224124200D03*
D24*
X269182100Y-226664200D03*
D14*
X275030700Y-202454300D03*
D24*
X275030700Y-199914300D03*
D14*
X284856100Y-196482800D03*
D24*
X287396100Y-196482800D03*
D14*
X269242100Y-218480700D03*
D24*
X269242100Y-221020700D03*
D14*
X269111100Y-215283000D03*
D24*
X271651100Y-215283000D03*
D14*
X252820200Y-158656600D03*
D24*
X252820200Y-161196600D03*
D14*
X252789100Y-165171700D03*
D24*
X252789100Y-167711700D03*
D14*
X252864700Y-171998200D03*
D24*
X252864700Y-174538200D03*
D14*
X252788200Y-179524000D03*
D24*
X252788200Y-182064000D03*
D14*
X216627800Y-167522500D03*
D24*
X219167800Y-167522500D03*
D14*
X216627800Y-176956000D03*
D24*
X219167800Y-176956000D03*
D14*
X216627800Y-162914600D03*
D24*
X219167800Y-162914600D03*
D14*
X216363300Y-172195100D03*
D24*
X218903300Y-172195100D03*
D14*
X237998900Y-158560600D03*
D24*
X237998900Y-161100600D03*
D14*
X237998900Y-165224800D03*
D24*
X237998900Y-167764800D03*
D14*
X176781300Y-167210900D03*
D24*
X179321300Y-167210900D03*
D14*
X213357200Y-222792800D03*
D24*
X215897200Y-222792800D03*
D14*
X184485900Y-230131700D03*
D24*
X184485900Y-232671700D03*
D14*
X179405900Y-230131700D03*
D24*
X179405900Y-232671700D03*
D14*
X176685400Y-171960200D03*
D24*
X179225400Y-171960200D03*
D14*
X237998900Y-172868000D03*
D24*
X237998900Y-175408000D03*
D14*
X237998900Y-179547100D03*
D24*
X237998900Y-182087100D03*
D14*
X189565900Y-230131700D03*
D24*
X189565900Y-232671700D03*
D14*
X212893300Y-206930100D03*
D24*
X215433300Y-206930100D03*
D14*
X212893300Y-201850100D03*
D24*
X215433300Y-201850100D03*
D14*
X203843100Y-151304500D03*
D24*
X206383100Y-151304500D03*
D14*
X198498800Y-149707200D03*
D24*
X201038800Y-149707200D03*
D14*
X215386600Y-133431600D03*
D24*
X217926600Y-133431600D03*
D14*
X215394100Y-136519100D03*
D24*
X217934100Y-136519100D03*
D14*
X232861800Y-149583000D03*
D24*
X230321800Y-149583000D03*
D14*
X230785700Y-152697100D03*
D24*
X233325700Y-152697100D03*
D14*
X224314700Y-155913500D03*
D24*
X224314700Y-158453500D03*
D14*
X217611700Y-149660500D03*
D24*
X215071700Y-149660500D03*
D14*
X215478200Y-152773600D03*
D24*
X218018200Y-152773600D03*
D14*
X204230300Y-146512500D03*
D24*
X206770300Y-146512500D03*
D14*
X230777400Y-133479600D03*
D24*
X233317400Y-133479600D03*
D14*
X230739700Y-136612300D03*
D24*
X233279700Y-136612300D03*
D14*
X203843100Y-154305500D03*
D24*
X206383100Y-154305500D03*
D14*
X246012600Y-136666600D03*
D24*
X248552600Y-136666600D03*
D14*
X245989500Y-133538300D03*
D24*
X248529500Y-133538300D03*
D14*
X192401800Y-128994900D03*
D24*
X194941800Y-128994900D03*
D14*
X289945200Y-137654800D03*
D24*
X287405200Y-137654800D03*
D14*
X287837100Y-134475900D03*
D24*
X290377100Y-134475900D03*
D14*
X287848200Y-131402000D03*
D24*
X290388200Y-131402000D03*
D14*
X198492600Y-154316600D03*
D24*
X201032600Y-154316600D03*
D14*
X277740400Y-136393600D03*
D24*
X280280400Y-136393600D03*
D14*
X277760500Y-133287100D03*
D24*
X280300500Y-133287100D03*
D14*
X261013300Y-149626000D03*
D24*
X263553300Y-149626000D03*
D14*
X263114600Y-152802000D03*
D24*
X260574600Y-152802000D03*
D14*
X192393800Y-143011800D03*
D24*
X194933800Y-143011800D03*
D14*
X162580100Y-168035600D03*
D24*
X165120100Y-168035600D03*
D14*
X162580100Y-172694500D03*
D24*
X165120100Y-172694500D03*
D14*
X198367400Y-144984000D03*
D24*
X200907400Y-144984000D03*
D14*
X261444300Y-136632000D03*
D24*
X263984300Y-136632000D03*
D14*
X261444300Y-133533300D03*
D24*
X263984300Y-133533300D03*
D14*
X192385700Y-133645700D03*
D24*
X194925700Y-133645700D03*
D14*
X213721600Y-158353400D03*
D24*
X216261600Y-158353400D03*
D14*
X218887600Y-155849600D03*
D24*
X221427600Y-155849600D03*
D14*
X192321200Y-138324700D03*
D24*
X194861200Y-138324700D03*
D14*
X248142400Y-152614500D03*
D24*
X245602400Y-152614500D03*
D14*
X246034400Y-149519200D03*
D24*
X248574400Y-149519200D03*
D14*
X192296900Y-147701400D03*
D24*
X194836900Y-147701400D03*
D14*
X174581900Y-127498200D03*
D24*
X177121900Y-127498200D03*
D14*
X276271300Y-232475500D03*
D24*
X276271300Y-229935500D03*
D14*
X198254200Y-157521800D03*
D24*
X198254200Y-160061800D03*
D14*
X207714400Y-139352600D03*
D24*
X207714400Y-141892600D03*
D14*
X281314400Y-232475500D03*
D24*
X281314400Y-229935500D03*
D14*
X286267500Y-232475500D03*
D24*
X286267500Y-229935500D03*
D14*
X212893300Y-196770100D03*
D24*
X215433300Y-196770100D03*
D14*
X212893300Y-191690100D03*
D24*
X215433300Y-191690100D03*
D14*
X206390300Y-169539000D03*
D24*
X206390300Y-172079000D03*
D14*
X206390300Y-174744600D03*
D24*
X206390300Y-177284600D03*
D14*
X201717000Y-169539000D03*
D24*
X201717000Y-172079000D03*
D14*
X221836100Y-176956000D03*
D24*
X224376100Y-176956000D03*
D14*
X221571500Y-172135000D03*
D24*
X224111500Y-172135000D03*
D14*
X221836100Y-167462400D03*
D24*
X224376100Y-167462400D03*
D14*
X201717000Y-174744600D03*
D24*
X201717000Y-177284600D03*
D14*
X221836100Y-162854600D03*
D24*
X224376100Y-162854600D03*
D14*
X211419600Y-162974600D03*
D24*
X213959600Y-162974600D03*
D14*
X211419600Y-167582500D03*
D24*
X213959600Y-167582500D03*
D14*
X211419600Y-176956000D03*
D24*
X213959600Y-176956000D03*
D14*
X211155000Y-172255100D03*
D24*
X213695000Y-172255100D03*
D14*
X227044300Y-162914600D03*
D24*
X229584300Y-162914600D03*
D14*
X227044300Y-167522500D03*
D24*
X229584300Y-167522500D03*
D14*
X226779800Y-172195100D03*
D24*
X229319800Y-172195100D03*
D14*
X227044300Y-176956000D03*
D24*
X229584300Y-176956000D03*
D51*
X114761200Y-117885900D03*
X112221200Y-117885900D03*
X109681200Y-117885900D03*
X114755400Y-106876600D03*
X112215400Y-106876600D03*
X109675400Y-106876600D03*
X114740100Y-112371200D03*
X112200100Y-112371200D03*
X109660100Y-112371200D03*
D52*
X202850100Y-222263100D03*
D53*
X202850100Y-211563100D03*
D52*
X163401300Y-134266900D03*
D53*
X163401300Y-123566900D03*
D52*
X212321800Y-186796800D03*
D53*
X201621800Y-186796800D03*
D52*
X219823900Y-130532500D03*
D53*
X209123900Y-130532500D03*
D52*
X235169800Y-146806200D03*
D53*
X224469800Y-146806200D03*
D52*
X219823900Y-146839400D03*
D53*
X209123900Y-146839400D03*
D52*
X235082400Y-130532500D03*
D53*
X224382400Y-130532500D03*
D52*
X250385462Y-130531212D03*
D53*
X239685462Y-130531212D03*
D52*
X281029100Y-139409500D03*
D53*
X270329100Y-139409500D03*
D52*
X282184100Y-130440300D03*
D53*
X271484100Y-130440300D03*
D52*
X266870900Y-146718500D03*
D53*
X256170900Y-146718500D03*
D52*
X207899300Y-111480600D03*
D53*
X207899300Y-122180600D03*
D52*
X265931800Y-130532500D03*
D53*
X255231800Y-130532500D03*
D52*
X205502000Y-97603900D03*
D53*
X205502000Y-108303900D03*
D52*
X250492500Y-146769100D03*
D53*
X239792500Y-146769100D03*
D20*
X149507200Y-98101000D03*
D21*
X149507200Y-100641000D03*
M02*
