%TF.GenerationSoftware,KiCad,Pcbnew,(5.1.9)-1*%
%TF.CreationDate,2021-10-09T20:08:53-07:00*%
%TF.ProjectId,Energy Meter Adapter,456e6572-6779-4204-9d65-746572204164,rev?*%
%TF.SameCoordinates,Original*%
%TF.FileFunction,Copper,L2,Bot*%
%TF.FilePolarity,Positive*%
%FSLAX46Y46*%
G04 Gerber Fmt 4.6, Leading zero omitted, Abs format (unit mm)*
G04 Created by KiCad (PCBNEW (5.1.9)-1) date 2021-10-09 20:08:53*
%MOMM*%
%LPD*%
G01*
G04 APERTURE LIST*
%TA.AperFunction,ComponentPad*%
%ADD10R,1.700000X1.700000*%
%TD*%
%TA.AperFunction,ComponentPad*%
%ADD11O,1.700000X1.700000*%
%TD*%
%TA.AperFunction,SMDPad,CuDef*%
%ADD12R,1.525000X0.650000*%
%TD*%
%TA.AperFunction,Conductor*%
%ADD13C,0.250000*%
%TD*%
G04 APERTURE END LIST*
D10*
%TO.P,J3,1*%
%TO.N,Net-(IC1-Pad14)*%
X118110000Y-66400000D03*
%TD*%
D11*
%TO.P,J2,9*%
%TO.N,N/C*%
X133985000Y-93980000D03*
%TO.P,J2,8*%
X133985000Y-91440000D03*
%TO.P,J2,7*%
X133985000Y-88900000D03*
%TO.P,J2,6*%
%TO.N,Net-(IC1-Pad15)*%
X133985000Y-86360000D03*
%TO.P,J2,5*%
%TO.N,Net-(IC1-Pad2)*%
X133985000Y-83820000D03*
%TO.P,J2,4*%
%TO.N,Net-(IC1-Pad5)*%
X133985000Y-81280000D03*
%TO.P,J2,3*%
%TO.N,Net-(IC1-Pad6)*%
X133985000Y-78740000D03*
%TO.P,J2,2*%
%TO.N,Net-(IC1-Pad1)*%
X133985000Y-76200000D03*
D10*
%TO.P,J2,1*%
%TO.N,GND*%
X133985000Y-73660000D03*
%TD*%
D11*
%TO.P,J1,9*%
%TO.N,N/C*%
X146685000Y-93980000D03*
%TO.P,J1,8*%
X146685000Y-91440000D03*
%TO.P,J1,7*%
X146685000Y-88900000D03*
%TO.P,J1,6*%
X146685000Y-86360000D03*
%TO.P,J1,5*%
%TO.N,Net-(IC1-Pad3)*%
X146685000Y-83820000D03*
%TO.P,J1,4*%
%TO.N,Net-(IC1-Pad4)*%
X146685000Y-81280000D03*
%TO.P,J1,3*%
%TO.N,Net-(IC1-Pad7)*%
X146685000Y-78740000D03*
%TO.P,J1,2*%
%TO.N,N/C*%
X146685000Y-76200000D03*
D10*
%TO.P,J1,1*%
%TO.N,GND*%
X146685000Y-73660000D03*
%TD*%
D12*
%TO.P,IC1,16*%
%TO.N,N/C*%
X120822000Y-86995000D03*
%TO.P,IC1,15*%
%TO.N,Net-(IC1-Pad15)*%
X120822000Y-85725000D03*
%TO.P,IC1,14*%
%TO.N,Net-(IC1-Pad14)*%
X120822000Y-84455000D03*
%TO.P,IC1,13*%
%TO.N,N/C*%
X120822000Y-83185000D03*
%TO.P,IC1,12*%
X120822000Y-81915000D03*
%TO.P,IC1,11*%
X120822000Y-80645000D03*
%TO.P,IC1,10*%
X120822000Y-79375000D03*
%TO.P,IC1,9*%
X120822000Y-78105000D03*
%TO.P,IC1,8*%
%TO.N,GND*%
X115398000Y-78105000D03*
%TO.P,IC1,7*%
%TO.N,Net-(IC1-Pad7)*%
X115398000Y-79375000D03*
%TO.P,IC1,6*%
%TO.N,Net-(IC1-Pad6)*%
X115398000Y-80645000D03*
%TO.P,IC1,5*%
%TO.N,Net-(IC1-Pad5)*%
X115398000Y-81915000D03*
%TO.P,IC1,4*%
%TO.N,Net-(IC1-Pad4)*%
X115398000Y-83185000D03*
%TO.P,IC1,3*%
%TO.N,Net-(IC1-Pad3)*%
X115398000Y-84455000D03*
%TO.P,IC1,2*%
%TO.N,Net-(IC1-Pad2)*%
X115398000Y-85725000D03*
%TO.P,IC1,1*%
%TO.N,Net-(IC1-Pad1)*%
X115398000Y-86995000D03*
%TD*%
D13*
%TO.N,Net-(IC1-Pad15)*%
X133985000Y-86360000D02*
X132809700Y-86360000D01*
X120822000Y-85725000D02*
X132174700Y-85725000D01*
X132174700Y-85725000D02*
X132809700Y-86360000D01*
%TO.N,Net-(IC1-Pad14)*%
X118110000Y-66400000D02*
X118110000Y-67575300D01*
X120822000Y-84455000D02*
X119734200Y-84455000D01*
X119734200Y-84455000D02*
X119734200Y-69199500D01*
X119734200Y-69199500D02*
X118110000Y-67575300D01*
%TO.N,GND*%
X132809700Y-73660000D02*
X123023400Y-63873700D01*
X123023400Y-63873700D02*
X116563200Y-63873700D01*
X116563200Y-63873700D02*
X115398000Y-65038900D01*
X115398000Y-65038900D02*
X115398000Y-78105000D01*
X133985000Y-73660000D02*
X132809700Y-73660000D01*
%TO.N,Net-(IC1-Pad7)*%
X146685000Y-78740000D02*
X145509700Y-78740000D01*
X115398000Y-79375000D02*
X116485800Y-79375000D01*
X116485800Y-79375000D02*
X116485800Y-74746400D01*
X116485800Y-74746400D02*
X115997700Y-74258300D01*
X115997700Y-74258300D02*
X115997700Y-65076100D01*
X115997700Y-65076100D02*
X116749800Y-64324000D01*
X116749800Y-64324000D02*
X119752200Y-64324000D01*
X119752200Y-64324000D02*
X132992900Y-77564700D01*
X132992900Y-77564700D02*
X144334400Y-77564700D01*
X144334400Y-77564700D02*
X145509700Y-78740000D01*
%TO.N,Net-(IC1-Pad6)*%
X132809700Y-78740000D02*
X132809700Y-78262300D01*
X132809700Y-78262300D02*
X119321700Y-64774300D01*
X119321700Y-64774300D02*
X116936400Y-64774300D01*
X116936400Y-64774300D02*
X116458100Y-65252600D01*
X116458100Y-65252600D02*
X116458100Y-72356600D01*
X116458100Y-72356600D02*
X116999400Y-72897900D01*
X116999400Y-72897900D02*
X116999400Y-80131400D01*
X116999400Y-80131400D02*
X116485800Y-80645000D01*
X115398000Y-80645000D02*
X116485800Y-80645000D01*
X133985000Y-78740000D02*
X132809700Y-78740000D01*
%TO.N,Net-(IC1-Pad5)*%
X133985000Y-81280000D02*
X133985000Y-80104700D01*
X115398000Y-81915000D02*
X116485800Y-81915000D01*
X116485800Y-81915000D02*
X117510600Y-80890200D01*
X117510600Y-80890200D02*
X117510600Y-69564700D01*
X117510600Y-69564700D02*
X116908400Y-68962500D01*
X116908400Y-68962500D02*
X116908400Y-65439200D01*
X116908400Y-65439200D02*
X117123000Y-65224600D01*
X117123000Y-65224600D02*
X119135100Y-65224600D01*
X119135100Y-65224600D02*
X122449800Y-68539300D01*
X122449800Y-68539300D02*
X122449800Y-69083700D01*
X122449800Y-69083700D02*
X133470800Y-80104700D01*
X133470800Y-80104700D02*
X133985000Y-80104700D01*
%TO.N,Net-(IC1-Pad4)*%
X145509700Y-81280000D02*
X139144400Y-87645300D01*
X139144400Y-87645300D02*
X119920500Y-87645300D01*
X119920500Y-87645300D02*
X118951600Y-86676400D01*
X118951600Y-86676400D02*
X118951600Y-85650800D01*
X118951600Y-85650800D02*
X116485800Y-83185000D01*
X115398000Y-83185000D02*
X116485800Y-83185000D01*
X146685000Y-81280000D02*
X145509700Y-81280000D01*
%TO.N,Net-(IC1-Pad3)*%
X145509700Y-83820000D02*
X139246800Y-90082900D01*
X139246800Y-90082900D02*
X121678400Y-90082900D01*
X121678400Y-90082900D02*
X116485800Y-84890300D01*
X116485800Y-84890300D02*
X116485800Y-84455000D01*
X115398000Y-84455000D02*
X116485800Y-84455000D01*
X146685000Y-83820000D02*
X145509700Y-83820000D01*
%TO.N,Net-(IC1-Pad2)*%
X133985000Y-83820000D02*
X135160300Y-83820000D01*
X115398000Y-85725000D02*
X116485800Y-85725000D01*
X116485800Y-85725000D02*
X123415800Y-92655000D01*
X123415800Y-92655000D02*
X138489800Y-92655000D01*
X138489800Y-92655000D02*
X146054800Y-85090000D01*
X146054800Y-85090000D02*
X147183400Y-85090000D01*
X147183400Y-85090000D02*
X147873100Y-84400300D01*
X147873100Y-84400300D02*
X147873100Y-80805700D01*
X147873100Y-80805700D02*
X147077400Y-80010000D01*
X147077400Y-80010000D02*
X138970300Y-80010000D01*
X138970300Y-80010000D02*
X135160300Y-83820000D01*
%TO.N,Net-(IC1-Pad1)*%
X133985000Y-76200000D02*
X133985000Y-75024700D01*
X115398000Y-86995000D02*
X114310200Y-86995000D01*
X114310200Y-86995000D02*
X114310200Y-65460400D01*
X114310200Y-65460400D02*
X116353000Y-63417600D01*
X116353000Y-63417600D02*
X125907600Y-63417600D01*
X125907600Y-63417600D02*
X135160300Y-72670300D01*
X135160300Y-72670300D02*
X135160300Y-74657500D01*
X135160300Y-74657500D02*
X134793100Y-75024700D01*
X134793100Y-75024700D02*
X133985000Y-75024700D01*
%TD*%
M02*
