%TF.GenerationSoftware,KiCad,Pcbnew,(5.1.9)-1*%
%TF.CreationDate,2021-10-09T20:08:53-07:00*%
%TF.ProjectId,Energy Meter Adapter,456e6572-6779-4204-9d65-746572204164,rev?*%
%TF.SameCoordinates,Original*%
%TF.FileFunction,Legend,Bot*%
%TF.FilePolarity,Positive*%
%FSLAX46Y46*%
G04 Gerber Fmt 4.6, Leading zero omitted, Abs format (unit mm)*
G04 Created by KiCad (PCBNEW (5.1.9)-1) date 2021-10-09 20:08:53*
%MOMM*%
%LPD*%
G01*
G04 APERTURE LIST*
%ADD10C,0.120000*%
%ADD11C,0.200000*%
%ADD12C,0.150000*%
%ADD13C,0.254000*%
G04 APERTURE END LIST*
D10*
%TO.C,J1*%
X148015000Y-72330000D02*
X146685000Y-72330000D01*
X148015000Y-73660000D02*
X148015000Y-72330000D01*
X148015000Y-74930000D02*
X145355000Y-74930000D01*
X145355000Y-74930000D02*
X145355000Y-95310000D01*
X148015000Y-74930000D02*
X148015000Y-95310000D01*
X148015000Y-95310000D02*
X145355000Y-95310000D01*
D11*
%TO.C,IC1*%
X114635000Y-87670000D02*
X116160000Y-87670000D01*
X116510000Y-77600000D02*
X116510000Y-87500000D01*
X119710000Y-77600000D02*
X116510000Y-77600000D01*
X119710000Y-87500000D02*
X119710000Y-77600000D01*
X116510000Y-87500000D02*
X119710000Y-87500000D01*
%TO.C,J1*%
D12*
X147018333Y-70782380D02*
X147018333Y-71496666D01*
X147065952Y-71639523D01*
X147161190Y-71734761D01*
X147304047Y-71782380D01*
X147399285Y-71782380D01*
X146018333Y-71782380D02*
X146589761Y-71782380D01*
X146304047Y-71782380D02*
X146304047Y-70782380D01*
X146399285Y-70925238D01*
X146494523Y-71020476D01*
X146589761Y-71068095D01*
%TO.C,IC1*%
D13*
X119349761Y-83124523D02*
X119349761Y-81854523D01*
X118019285Y-83003571D02*
X118079761Y-83064047D01*
X118261190Y-83124523D01*
X118382142Y-83124523D01*
X118563571Y-83064047D01*
X118684523Y-82943095D01*
X118745000Y-82822142D01*
X118805476Y-82580238D01*
X118805476Y-82398809D01*
X118745000Y-82156904D01*
X118684523Y-82035952D01*
X118563571Y-81915000D01*
X118382142Y-81854523D01*
X118261190Y-81854523D01*
X118079761Y-81915000D01*
X118019285Y-81975476D01*
X116809761Y-83124523D02*
X117535476Y-83124523D01*
X117172619Y-83124523D02*
X117172619Y-81854523D01*
X117293571Y-82035952D01*
X117414523Y-82156904D01*
X117535476Y-82217380D01*
%TD*%
M02*
