%TF.GenerationSoftware,KiCad,Pcbnew,(5.1.9)-1*%
%TF.CreationDate,2021-10-09T20:08:53-07:00*%
%TF.ProjectId,Energy Meter Adapter,456e6572-6779-4204-9d65-746572204164,rev?*%
%TF.SameCoordinates,Original*%
%TF.FileFunction,Legend,Top*%
%TF.FilePolarity,Positive*%
%FSLAX46Y46*%
G04 Gerber Fmt 4.6, Leading zero omitted, Abs format (unit mm)*
G04 Created by KiCad (PCBNEW (5.1.9)-1) date 2021-10-09 20:08:53*
%MOMM*%
%LPD*%
G01*
G04 APERTURE LIST*
%ADD10C,0.120000*%
%ADD11C,0.150000*%
G04 APERTURE END LIST*
D10*
%TO.C,J3*%
X118110000Y-65070000D02*
X119440000Y-65070000D01*
X119440000Y-65070000D02*
X119440000Y-66400000D01*
X119440000Y-67610000D02*
X119440000Y-67730000D01*
X116780000Y-67610000D02*
X116780000Y-67730000D01*
X116780000Y-67730000D02*
X119440000Y-67730000D01*
%TO.C,J2*%
X133985000Y-72330000D02*
X135315000Y-72330000D01*
X135315000Y-72330000D02*
X135315000Y-73660000D01*
X135315000Y-74930000D02*
X135315000Y-95310000D01*
X132655000Y-95310000D02*
X135315000Y-95310000D01*
X132655000Y-74930000D02*
X132655000Y-95310000D01*
X132655000Y-74930000D02*
X135315000Y-74930000D01*
%TO.C,J3*%
D11*
X117776666Y-63082380D02*
X117776666Y-63796666D01*
X117729047Y-63939523D01*
X117633809Y-64034761D01*
X117490952Y-64082380D01*
X117395714Y-64082380D01*
X118157619Y-63082380D02*
X118776666Y-63082380D01*
X118443333Y-63463333D01*
X118586190Y-63463333D01*
X118681428Y-63510952D01*
X118729047Y-63558571D01*
X118776666Y-63653809D01*
X118776666Y-63891904D01*
X118729047Y-63987142D01*
X118681428Y-64034761D01*
X118586190Y-64082380D01*
X118300476Y-64082380D01*
X118205238Y-64034761D01*
X118157619Y-63987142D01*
%TO.C,J2*%
X133651666Y-70342380D02*
X133651666Y-71056666D01*
X133604047Y-71199523D01*
X133508809Y-71294761D01*
X133365952Y-71342380D01*
X133270714Y-71342380D01*
X134080238Y-70437619D02*
X134127857Y-70390000D01*
X134223095Y-70342380D01*
X134461190Y-70342380D01*
X134556428Y-70390000D01*
X134604047Y-70437619D01*
X134651666Y-70532857D01*
X134651666Y-70628095D01*
X134604047Y-70770952D01*
X134032619Y-71342380D01*
X134651666Y-71342380D01*
%TD*%
M02*
